<svg width="20" height="14" viewBox="0 0 20 14" fill="none" xmlns="http://www.w3.org/2000/svg">
<path d="M10 0C8.3503 0.00517314 6.75685 0.600169 5.5075 1.6775C4.55 2.5025 3.85625 3.5775 3.6775 4.65625C1.5825 5.11875 0 6.94375 0 9.1475C0 11.7075 2.135 13.75 4.72625 13.75H15.8588C18.1275 13.75 20 11.9625 20 9.71625C20 7.67125 18.4475 6.005 16.4575 5.72375C16.1538 2.49875 13.3625 0 10 0ZM12.9425 8.5675L10.4425 11.0675C10.3844 11.1257 10.3155 11.1719 10.2395 11.2034C10.1636 11.2349 10.0822 11.2511 10 11.2511C9.91779 11.2511 9.83639 11.2349 9.76046 11.2034C9.68453 11.1719 9.61556 11.1257 9.5575 11.0675L7.0575 8.5675C6.99939 8.50939 6.95329 8.4404 6.92185 8.36448C6.8904 8.28856 6.87421 8.20718 6.87421 8.125C6.87421 8.04282 6.8904 7.96144 6.92185 7.88552C6.95329 7.8096 6.99939 7.74061 7.0575 7.6825C7.17486 7.56514 7.33403 7.49921 7.5 7.49921C7.58218 7.49921 7.66356 7.5154 7.73948 7.54685C7.8154 7.57829 7.88439 7.62439 7.9425 7.6825L9.375 9.11625V4.375C9.375 4.20924 9.44085 4.05027 9.55806 3.93306C9.67527 3.81585 9.83424 3.75 10 3.75C10.1658 3.75 10.3247 3.81585 10.4419 3.93306C10.5592 4.05027 10.625 4.20924 10.625 4.375V9.11625L12.0575 7.6825C12.1749 7.56514 12.334 7.49921 12.5 7.49921C12.666 7.49921 12.8251 7.56514 12.9425 7.6825C13.0599 7.79986 13.1258 7.95903 13.1258 8.125C13.1258 8.29097 13.0599 8.45014 12.9425 8.5675Z" fill="black"/>
</svg>
