<svg width="75" height="75" viewBox="0 0 75 75" fill="none" xmlns="http://www.w3.org/2000/svg">
<path d="M74.9117 66.4819C74.9117 68.6626 74.0347 70.7539 72.4738 72.2959C70.9128 73.8378 68.7957 74.7041 66.5881 74.7041H8.32352C6.11598 74.7041 3.99886 73.8378 2.4379 72.2959C0.87694 70.7539 0 68.6626 0 66.4819V8.92632C0 6.74566 0.87694 4.6543 2.4379 3.11233C3.99886 1.57037 6.11598 0.704102 8.32352 0.704102L66.5881 0.704102C68.7957 0.704102 70.9128 1.57037 72.4738 3.11233C74.0347 4.6543 74.9117 6.74566 74.9117 8.92632V66.4819Z" fill="#3B88C3"/>
<path d="M64.5362 38.9599C60.8988 35.7819 54.7134 33.1329 50.6214 31.3795C49.9281 31.0837 49.3023 30.8172 48.7711 30.5798C47.227 29.8925 45.1157 27.9891 46.0251 25.8024C46.6373 24.3239 48.1904 23.5783 50.6484 23.5783C51.4362 23.5783 52.3005 23.6616 53.2234 23.8199C56.4286 24.3738 58.8595 25.4817 60.2371 26.1107C60.4081 26.1898 60.6062 26.1981 60.7863 26.1398C60.9618 26.0773 61.1104 25.9524 61.1869 25.79L64.3426 19.205C64.4822 18.9176 64.3741 18.5761 64.086 18.4011C61.8622 17.035 56.3115 15.0066 50.1442 15.0066C49.2528 15.0066 48.366 15.0483 47.5017 15.1316C42.5858 15.5981 37.6609 16.8101 34.9328 22.4787C33.2312 26.0065 33.2357 29.98 34.9373 32.8456C36.756 35.9735 39.7362 37.373 43.5086 39.139L43.9948 39.368C46.7184 40.6259 49.9821 42.0253 52.1294 42.9458C55.3032 44.3619 56.4781 46.8776 55.7488 48.3937C54.5739 50.8386 51.9764 51.3759 47.4836 50.1972C43.5176 49.2017 39.8577 46.3903 38.8358 45.5531C38.6828 45.4282 38.4802 45.3699 38.2731 45.3949C38.0705 45.4199 37.8905 45.5282 37.7779 45.6823L32.889 52.6171C32.7045 52.8795 32.745 53.2252 32.9881 53.4418C35.5226 55.7034 37.5888 57.0195 41.1677 58.6481C43.5761 59.7435 47.101 60.4016 50.5988 60.4016C54.2542 60.4016 63.1812 59.6185 67.0977 52.3797C69.5961 47.7481 68.6643 42.8667 64.5362 38.9599Z" fill="#1C4B77"/>
<path d="M12.9941 19.8455C12.9941 16.9122 15.0584 14.9368 17.9612 14.9368H28.6715C43.1253 14.9368 51.3843 24.1149 51.3843 38.2633C51.3843 51.647 42.6092 60.3153 29.3166 60.3153H18.0902C15.9615 60.3153 12.9941 59.1662 12.9941 55.5361V19.8455ZM22.6723 51.5196H29.1896C37.5131 51.5196 41.3191 45.4659 41.3191 37.8172C41.3191 29.6587 37.4507 23.7326 28.5446 23.7326H22.6723V51.5196Z" fill="white"/>
</svg>
