<svg width="231" height="75" viewBox="0 0 231 75" fill="none" xmlns="http://www.w3.org/2000/svg">
<path d="M94.3643 31H89.8086L89.8379 28.085H94.3643C95.6826 28.085 96.7861 27.7969 97.6748 27.2207C98.5732 26.6445 99.2471 25.8193 99.6963 24.7451C100.155 23.6709 100.385 22.3916 100.385 20.9072V19.75C100.385 18.5977 100.253 17.5771 99.9893 16.6885C99.7354 15.7998 99.3545 15.0527 98.8467 14.4473C98.3486 13.8418 97.7334 13.3828 97.001 13.0703C96.2783 12.7578 95.4434 12.6016 94.4961 12.6016H89.7207V9.67188H94.4961C95.9121 9.67188 97.2061 9.91113 98.3779 10.3896C99.5498 10.8584 100.561 11.5371 101.41 12.4258C102.27 13.3145 102.929 14.3789 103.388 15.6191C103.847 16.8594 104.076 18.2461 104.076 19.7793V20.9072C104.076 22.4404 103.847 23.8271 103.388 25.0674C102.929 26.3076 102.27 27.3721 101.41 28.2607C100.551 29.1396 99.5254 29.8184 98.334 30.2969C97.1523 30.7656 95.8291 31 94.3643 31ZM91.8447 9.67188V31H88.168V9.67188H91.8447ZM114.403 31.293C113.231 31.293 112.172 31.1025 111.225 30.7217C110.287 30.3311 109.486 29.7891 108.822 29.0957C108.168 28.4023 107.665 27.5869 107.313 26.6494C106.962 25.7119 106.786 24.7012 106.786 23.6172V23.0312C106.786 21.791 106.967 20.668 107.328 19.6621C107.689 18.6562 108.192 17.7969 108.837 17.084C109.481 16.3613 110.243 15.8096 111.122 15.4287C112.001 15.0479 112.953 14.8574 113.979 14.8574C115.111 14.8574 116.103 15.0479 116.952 15.4287C117.802 15.8096 118.505 16.3467 119.062 17.04C119.628 17.7236 120.048 18.5391 120.321 19.4863C120.604 20.4336 120.746 21.4785 120.746 22.6211V24.1299H108.5V21.5957H117.26V21.3174C117.24 20.6826 117.113 20.0869 116.879 19.5303C116.654 18.9736 116.308 18.5244 115.839 18.1826C115.37 17.8408 114.745 17.6699 113.964 17.6699C113.378 17.6699 112.855 17.7969 112.396 18.0508C111.947 18.2949 111.571 18.6514 111.269 19.1201C110.966 19.5889 110.731 20.1553 110.565 20.8193C110.409 21.4736 110.331 22.2109 110.331 23.0312V23.6172C110.331 24.3105 110.424 24.9551 110.609 25.5508C110.805 26.1367 111.088 26.6494 111.459 27.0889C111.83 27.5283 112.279 27.875 112.807 28.1289C113.334 28.373 113.935 28.4951 114.608 28.4951C115.458 28.4951 116.215 28.3242 116.879 27.9824C117.543 27.6406 118.119 27.1572 118.607 26.5322L120.468 28.334C120.126 28.832 119.682 29.3105 119.135 29.7695C118.588 30.2188 117.919 30.585 117.128 30.8682C116.347 31.1514 115.438 31.293 114.403 31.293ZM128.451 28.2021L132.333 15.1504H135.995L130.487 31H128.202L128.451 28.2021ZM125.478 15.1504L129.433 28.2607L129.623 31H127.338L121.801 15.1504H125.478ZM146.879 27.8213V20.2627C146.879 19.6963 146.776 19.208 146.571 18.7979C146.366 18.3877 146.054 18.0703 145.634 17.8457C145.224 17.6211 144.706 17.5088 144.081 17.5088C143.505 17.5088 143.007 17.6064 142.587 17.8018C142.167 17.9971 141.84 18.2607 141.605 18.5928C141.371 18.9248 141.254 19.3008 141.254 19.7207H137.738C137.738 19.0957 137.89 18.4902 138.192 17.9043C138.495 17.3184 138.935 16.7959 139.511 16.3369C140.087 15.8779 140.775 15.5166 141.576 15.2529C142.377 14.9893 143.275 14.8574 144.271 14.8574C145.463 14.8574 146.518 15.0576 147.436 15.458C148.363 15.8584 149.091 16.4639 149.618 17.2744C150.155 18.0752 150.424 19.0811 150.424 20.292V27.3379C150.424 28.0605 150.473 28.71 150.57 29.2861C150.678 29.8525 150.829 30.3457 151.024 30.7656V31H147.406C147.24 30.6191 147.108 30.1357 147.011 29.5498C146.923 28.9541 146.879 28.3779 146.879 27.8213ZM147.392 21.3613L147.421 23.5439H144.887C144.232 23.5439 143.656 23.6074 143.158 23.7344C142.66 23.8516 142.245 24.0273 141.913 24.2617C141.581 24.4961 141.332 24.7793 141.166 25.1113C141 25.4434 140.917 25.8193 140.917 26.2393C140.917 26.6592 141.015 27.0449 141.21 27.3965C141.405 27.7383 141.688 28.0068 142.06 28.2021C142.44 28.3975 142.899 28.4951 143.437 28.4951C144.159 28.4951 144.789 28.3486 145.326 28.0557C145.873 27.7529 146.303 27.3867 146.615 26.957C146.928 26.5176 147.094 26.1025 147.113 25.7119L148.256 27.2793C148.139 27.6797 147.938 28.1094 147.655 28.5684C147.372 29.0273 147.001 29.4668 146.542 29.8867C146.093 30.2969 145.551 30.6338 144.916 30.8975C144.291 31.1611 143.568 31.293 142.748 31.293C141.713 31.293 140.79 31.0879 139.979 30.6777C139.169 30.2578 138.534 29.6963 138.075 28.9932C137.616 28.2803 137.387 27.4746 137.387 26.5762C137.387 25.7363 137.543 24.9941 137.855 24.3496C138.178 23.6953 138.646 23.1484 139.262 22.709C139.887 22.2695 140.648 21.9375 141.547 21.7129C142.445 21.4785 143.471 21.3613 144.623 21.3613H147.392ZM157.616 18.5342V31H154.086V15.1504H157.411L157.616 18.5342ZM156.986 22.4893L155.844 22.4746C155.854 21.3516 156.01 20.3213 156.312 19.3838C156.625 18.4463 157.055 17.6406 157.602 16.9668C158.158 16.293 158.822 15.7754 159.594 15.4141C160.365 15.043 161.225 14.8574 162.172 14.8574C162.934 14.8574 163.622 14.9648 164.237 15.1797C164.862 15.3848 165.395 15.7217 165.834 16.1904C166.283 16.6592 166.625 17.2695 166.859 18.0215C167.094 18.7637 167.211 19.6768 167.211 20.7607V31H163.666V20.7461C163.666 19.9844 163.554 19.3838 163.329 18.9443C163.114 18.4951 162.797 18.1777 162.377 17.9922C161.967 17.7969 161.454 17.6992 160.839 17.6992C160.233 17.6992 159.691 17.8262 159.213 18.0801C158.734 18.334 158.329 18.6807 157.997 19.1201C157.675 19.5596 157.426 20.0674 157.25 20.6436C157.074 21.2197 156.986 21.835 156.986 22.4893ZM179.706 26.708C179.706 26.3564 179.618 26.0391 179.442 25.7559C179.267 25.4629 178.93 25.1992 178.432 24.9648C177.943 24.7305 177.221 24.5156 176.264 24.3203C175.424 24.1348 174.652 23.915 173.949 23.6611C173.256 23.3975 172.66 23.0801 172.162 22.709C171.664 22.3379 171.278 21.8984 171.005 21.3906C170.731 20.8828 170.595 20.2969 170.595 19.6328C170.595 18.9883 170.736 18.3779 171.02 17.8018C171.303 17.2256 171.708 16.7178 172.235 16.2783C172.763 15.8389 173.402 15.4922 174.154 15.2383C174.916 14.9844 175.766 14.8574 176.703 14.8574C178.031 14.8574 179.169 15.082 180.116 15.5312C181.073 15.9707 181.806 16.5713 182.313 17.333C182.821 18.085 183.075 18.9346 183.075 19.8818H179.545C179.545 19.4619 179.438 19.0713 179.223 18.71C179.018 18.3389 178.705 18.041 178.285 17.8164C177.865 17.582 177.338 17.4648 176.703 17.4648C176.098 17.4648 175.595 17.5625 175.194 17.7578C174.804 17.9434 174.511 18.1875 174.315 18.4902C174.13 18.793 174.037 19.125 174.037 19.4863C174.037 19.75 174.086 19.9893 174.184 20.2041C174.291 20.4092 174.467 20.5996 174.711 20.7754C174.955 20.9414 175.287 21.0977 175.707 21.2441C176.137 21.3906 176.674 21.5322 177.318 21.6689C178.529 21.9229 179.569 22.25 180.438 22.6504C181.317 23.041 181.991 23.5488 182.46 24.1738C182.929 24.7891 183.163 25.5703 183.163 26.5176C183.163 27.2207 183.012 27.8652 182.709 28.4512C182.416 29.0273 181.986 29.5303 181.42 29.96C180.854 30.3799 180.175 30.707 179.384 30.9414C178.603 31.1758 177.724 31.293 176.747 31.293C175.312 31.293 174.096 31.0391 173.1 30.5312C172.104 30.0137 171.347 29.3545 170.829 28.5537C170.321 27.7432 170.067 26.9033 170.067 26.0342H173.48C173.52 26.6885 173.7 27.2109 174.022 27.6016C174.354 27.9824 174.765 28.2607 175.253 28.4365C175.751 28.6025 176.264 28.6855 176.791 28.6855C177.426 28.6855 177.958 28.6025 178.388 28.4365C178.817 28.2607 179.145 28.0264 179.369 27.7334C179.594 27.4307 179.706 27.0889 179.706 26.708ZM189.74 8.5V31H186.225V8.5H189.74ZM189.125 22.4893L187.982 22.4746C187.992 21.3809 188.144 20.3701 188.437 19.4424C188.739 18.5146 189.159 17.709 189.696 17.0254C190.243 16.332 190.897 15.7998 191.659 15.4287C192.421 15.0479 193.266 14.8574 194.193 14.8574C194.975 14.8574 195.678 14.9648 196.303 15.1797C196.938 15.3945 197.484 15.7412 197.943 16.2197C198.402 16.6885 198.749 17.3037 198.983 18.0654C199.228 18.8174 199.35 19.7354 199.35 20.8193V31H195.805V20.79C195.805 20.0283 195.692 19.4229 195.468 18.9736C195.253 18.5244 194.936 18.2021 194.516 18.0068C194.096 17.8018 193.583 17.6992 192.978 17.6992C192.343 17.6992 191.781 17.8262 191.293 18.0801C190.814 18.334 190.414 18.6807 190.092 19.1201C189.77 19.5596 189.525 20.0674 189.359 20.6436C189.203 21.2197 189.125 21.835 189.125 22.4893ZM99.3887 60.5068C99.3887 60.0674 99.3203 59.6768 99.1836 59.335C99.0566 58.9932 98.8271 58.6807 98.4951 58.3975C98.1631 58.1143 97.6943 57.8408 97.0889 57.5771C96.4932 57.3037 95.7314 57.0254 94.8037 56.7422C93.7881 56.4297 92.8506 56.083 91.9912 55.7021C91.1416 55.3115 90.3994 54.8623 89.7646 54.3545C89.1299 53.8369 88.6367 53.2461 88.2852 52.582C87.9336 51.9082 87.7578 51.1318 87.7578 50.2529C87.7578 49.3838 87.9385 48.5928 88.2998 47.8799C88.6709 47.167 89.1934 46.5518 89.8672 46.0342C90.5508 45.5068 91.3564 45.1016 92.2842 44.8184C93.2119 44.5254 94.2373 44.3789 95.3604 44.3789C96.9424 44.3789 98.3047 44.6719 99.4473 45.2578C100.6 45.8438 101.483 46.6299 102.099 47.6162C102.724 48.6025 103.036 49.6914 103.036 50.8828H99.3887C99.3887 50.1797 99.2373 49.5596 98.9346 49.0225C98.6416 48.4756 98.1924 48.0459 97.5869 47.7334C96.9912 47.4209 96.2344 47.2646 95.3164 47.2646C94.4473 47.2646 93.7246 47.3965 93.1484 47.6602C92.5723 47.9238 92.1426 48.2803 91.8594 48.7295C91.5762 49.1787 91.4346 49.6865 91.4346 50.2529C91.4346 50.6533 91.5273 51.0195 91.7129 51.3516C91.8984 51.6738 92.1816 51.9766 92.5625 52.2598C92.9434 52.5332 93.4219 52.792 93.998 53.0361C94.5742 53.2803 95.2529 53.5146 96.0342 53.7393C97.2158 54.0908 98.2461 54.4814 99.125 54.9111C100.004 55.3311 100.736 55.8096 101.322 56.3467C101.908 56.8838 102.348 57.4941 102.641 58.1777C102.934 58.8516 103.08 59.6182 103.08 60.4775C103.08 61.376 102.899 62.1865 102.538 62.9092C102.177 63.6221 101.659 64.2324 100.985 64.7402C100.321 65.2383 99.5205 65.624 98.583 65.8975C97.6553 66.1611 96.6201 66.293 95.4775 66.293C94.4521 66.293 93.4414 66.1562 92.4453 65.8828C91.459 65.6094 90.5605 65.1943 89.75 64.6377C88.9395 64.0713 88.2949 63.3682 87.8164 62.5283C87.3379 61.6787 87.0986 60.6875 87.0986 59.5547H90.7754C90.7754 60.248 90.8926 60.8389 91.127 61.3271C91.3711 61.8154 91.708 62.2158 92.1377 62.5283C92.5674 62.8311 93.0654 63.0557 93.6318 63.2021C94.208 63.3486 94.8232 63.4219 95.4775 63.4219C96.3369 63.4219 97.0547 63.2998 97.6309 63.0557C98.2168 62.8115 98.6562 62.4697 98.9492 62.0303C99.2422 61.5908 99.3887 61.083 99.3887 60.5068ZM109.525 53.168V66H105.995V50.1504H109.364L109.525 53.168ZM114.374 50.0479L114.345 53.3291C114.13 53.29 113.896 53.2607 113.642 53.2412C113.397 53.2217 113.153 53.2119 112.909 53.2119C112.304 53.2119 111.771 53.2998 111.312 53.4756C110.854 53.6416 110.468 53.8857 110.155 54.208C109.853 54.5205 109.618 54.9014 109.452 55.3506C109.286 55.7998 109.188 56.3027 109.159 56.8594L108.354 56.918C108.354 55.9219 108.451 54.999 108.646 54.1494C108.842 53.2998 109.135 52.5527 109.525 51.9082C109.926 51.2637 110.424 50.7607 111.02 50.3994C111.625 50.0381 112.323 49.8574 113.114 49.8574C113.329 49.8574 113.559 49.877 113.803 49.916C114.057 49.9551 114.247 49.999 114.374 50.0479ZM120.365 50.1504V66H116.82V50.1504H120.365ZM116.586 45.9902C116.586 45.4531 116.762 45.0088 117.113 44.6572C117.475 44.2959 117.973 44.1152 118.607 44.1152C119.232 44.1152 119.726 44.2959 120.087 44.6572C120.448 45.0088 120.629 45.4531 120.629 45.9902C120.629 46.5176 120.448 46.957 120.087 47.3086C119.726 47.6602 119.232 47.8359 118.607 47.8359C117.973 47.8359 117.475 47.6602 117.113 47.3086C116.762 46.957 116.586 46.5176 116.586 45.9902ZM129.389 63.2021L133.271 50.1504H136.933L131.425 66H129.14L129.389 63.2021ZM126.415 50.1504L130.37 63.2607L130.561 66H128.275L122.738 50.1504H126.415ZM147.816 62.8213V55.2627C147.816 54.6963 147.714 54.208 147.509 53.7979C147.304 53.3877 146.991 53.0703 146.571 52.8457C146.161 52.6211 145.644 52.5088 145.019 52.5088C144.442 52.5088 143.944 52.6064 143.524 52.8018C143.104 52.9971 142.777 53.2607 142.543 53.5928C142.309 53.9248 142.191 54.3008 142.191 54.7207H138.676C138.676 54.0957 138.827 53.4902 139.13 52.9043C139.433 52.3184 139.872 51.7959 140.448 51.3369C141.024 50.8779 141.713 50.5166 142.514 50.2529C143.314 49.9893 144.213 49.8574 145.209 49.8574C146.4 49.8574 147.455 50.0576 148.373 50.458C149.301 50.8584 150.028 51.4639 150.556 52.2744C151.093 53.0752 151.361 54.0811 151.361 55.292V62.3379C151.361 63.0605 151.41 63.71 151.508 64.2861C151.615 64.8525 151.767 65.3457 151.962 65.7656V66H148.344C148.178 65.6191 148.046 65.1357 147.948 64.5498C147.86 63.9541 147.816 63.3779 147.816 62.8213ZM148.329 56.3613L148.358 58.5439H145.824C145.17 58.5439 144.594 58.6074 144.096 58.7344C143.598 58.8516 143.183 59.0273 142.851 59.2617C142.519 59.4961 142.27 59.7793 142.104 60.1113C141.938 60.4434 141.854 60.8193 141.854 61.2393C141.854 61.6592 141.952 62.0449 142.147 62.3965C142.343 62.7383 142.626 63.0068 142.997 63.2021C143.378 63.3975 143.837 63.4951 144.374 63.4951C145.097 63.4951 145.727 63.3486 146.264 63.0557C146.811 62.7529 147.24 62.3867 147.553 61.957C147.865 61.5176 148.031 61.1025 148.051 60.7119L149.193 62.2793C149.076 62.6797 148.876 63.1094 148.593 63.5684C148.31 64.0273 147.938 64.4668 147.479 64.8867C147.03 65.2969 146.488 65.6338 145.854 65.8975C145.229 66.1611 144.506 66.293 143.686 66.293C142.65 66.293 141.728 66.0879 140.917 65.6777C140.106 65.2578 139.472 64.6963 139.013 63.9932C138.554 63.2803 138.324 62.4746 138.324 61.5762C138.324 60.7363 138.48 59.9941 138.793 59.3496C139.115 58.6953 139.584 58.1484 140.199 57.709C140.824 57.2695 141.586 56.9375 142.484 56.7129C143.383 56.4785 144.408 56.3613 145.561 56.3613H148.329ZM163.944 61.708C163.944 61.3564 163.856 61.0391 163.681 60.7559C163.505 60.4629 163.168 60.1992 162.67 59.9648C162.182 59.7305 161.459 59.5156 160.502 59.3203C159.662 59.1348 158.891 58.915 158.188 58.6611C157.494 58.3975 156.898 58.0801 156.4 57.709C155.902 57.3379 155.517 56.8984 155.243 56.3906C154.97 55.8828 154.833 55.2969 154.833 54.6328C154.833 53.9883 154.975 53.3779 155.258 52.8018C155.541 52.2256 155.946 51.7178 156.474 51.2783C157.001 50.8389 157.641 50.4922 158.393 50.2383C159.154 49.9844 160.004 49.8574 160.941 49.8574C162.27 49.8574 163.407 50.082 164.354 50.5312C165.312 50.9707 166.044 51.5713 166.552 52.333C167.06 53.085 167.313 53.9346 167.313 54.8818H163.783C163.783 54.4619 163.676 54.0713 163.461 53.71C163.256 53.3389 162.943 53.041 162.523 52.8164C162.104 52.582 161.576 52.4648 160.941 52.4648C160.336 52.4648 159.833 52.5625 159.433 52.7578C159.042 52.9434 158.749 53.1875 158.554 53.4902C158.368 53.793 158.275 54.125 158.275 54.4863C158.275 54.75 158.324 54.9893 158.422 55.2041C158.529 55.4092 158.705 55.5996 158.949 55.7754C159.193 55.9414 159.525 56.0977 159.945 56.2441C160.375 56.3906 160.912 56.5322 161.557 56.6689C162.768 56.9229 163.808 57.25 164.677 57.6504C165.556 58.041 166.229 58.5488 166.698 59.1738C167.167 59.7891 167.401 60.5703 167.401 61.5176C167.401 62.2207 167.25 62.8652 166.947 63.4512C166.654 64.0273 166.225 64.5303 165.658 64.96C165.092 65.3799 164.413 65.707 163.622 65.9414C162.841 66.1758 161.962 66.293 160.985 66.293C159.55 66.293 158.334 66.0391 157.338 65.5312C156.342 65.0137 155.585 64.3545 155.067 63.5537C154.56 62.7432 154.306 61.9033 154.306 61.0342H157.719C157.758 61.6885 157.938 62.2109 158.261 62.6016C158.593 62.9824 159.003 63.2607 159.491 63.4365C159.989 63.6025 160.502 63.6855 161.029 63.6855C161.664 63.6855 162.196 63.6025 162.626 63.4365C163.056 63.2607 163.383 63.0264 163.607 62.7334C163.832 62.4307 163.944 62.0889 163.944 61.708ZM177.758 50.1504V52.7285H168.822V50.1504H177.758ZM171.4 46.2686H174.931V61.6201C174.931 62.1084 174.999 62.4844 175.136 62.748C175.282 63.002 175.482 63.1729 175.736 63.2607C175.99 63.3486 176.288 63.3926 176.63 63.3926C176.874 63.3926 177.108 63.3779 177.333 63.3486C177.558 63.3193 177.738 63.29 177.875 63.2607L177.89 65.9561C177.597 66.0439 177.255 66.1221 176.864 66.1904C176.483 66.2588 176.044 66.293 175.546 66.293C174.735 66.293 174.018 66.1514 173.393 65.8682C172.768 65.5752 172.279 65.1016 171.928 64.4473C171.576 63.793 171.4 62.9238 171.4 61.8398V46.2686ZM189.418 62.8213V55.2627C189.418 54.6963 189.315 54.208 189.11 53.7979C188.905 53.3877 188.593 53.0703 188.173 52.8457C187.763 52.6211 187.245 52.5088 186.62 52.5088C186.044 52.5088 185.546 52.6064 185.126 52.8018C184.706 52.9971 184.379 53.2607 184.145 53.5928C183.91 53.9248 183.793 54.3008 183.793 54.7207H180.277C180.277 54.0957 180.429 53.4902 180.731 52.9043C181.034 52.3184 181.474 51.7959 182.05 51.3369C182.626 50.8779 183.314 50.5166 184.115 50.2529C184.916 49.9893 185.814 49.8574 186.811 49.8574C188.002 49.8574 189.057 50.0576 189.975 50.458C190.902 50.8584 191.63 51.4639 192.157 52.2744C192.694 53.0752 192.963 54.0811 192.963 55.292V62.3379C192.963 63.0605 193.012 63.71 193.109 64.2861C193.217 64.8525 193.368 65.3457 193.563 65.7656V66H189.945C189.779 65.6191 189.647 65.1357 189.55 64.5498C189.462 63.9541 189.418 63.3779 189.418 62.8213ZM189.931 56.3613L189.96 58.5439H187.426C186.771 58.5439 186.195 58.6074 185.697 58.7344C185.199 58.8516 184.784 59.0273 184.452 59.2617C184.12 59.4961 183.871 59.7793 183.705 60.1113C183.539 60.4434 183.456 60.8193 183.456 61.2393C183.456 61.6592 183.554 62.0449 183.749 62.3965C183.944 62.7383 184.228 63.0068 184.599 63.2021C184.979 63.3975 185.438 63.4951 185.976 63.4951C186.698 63.4951 187.328 63.3486 187.865 63.0557C188.412 62.7529 188.842 62.3867 189.154 61.957C189.467 61.5176 189.633 61.1025 189.652 60.7119L190.795 62.2793C190.678 62.6797 190.478 63.1094 190.194 63.5684C189.911 64.0273 189.54 64.4668 189.081 64.8867C188.632 65.2969 188.09 65.6338 187.455 65.8975C186.83 66.1611 186.107 66.293 185.287 66.293C184.252 66.293 183.329 66.0879 182.519 65.6777C181.708 65.2578 181.073 64.6963 180.614 63.9932C180.155 63.2803 179.926 62.4746 179.926 61.5762C179.926 60.7363 180.082 59.9941 180.395 59.3496C180.717 58.6953 181.186 58.1484 181.801 57.709C182.426 57.2695 183.188 56.9375 184.086 56.7129C184.984 56.4785 186.01 56.3613 187.162 56.3613H189.931ZM201.576 63.2021L205.458 50.1504H209.12L203.612 66H201.327L201.576 63.2021ZM198.603 50.1504L202.558 63.2607L202.748 66H200.463L194.926 50.1504H198.603ZM220.004 62.8213V55.2627C220.004 54.6963 219.901 54.208 219.696 53.7979C219.491 53.3877 219.179 53.0703 218.759 52.8457C218.349 52.6211 217.831 52.5088 217.206 52.5088C216.63 52.5088 216.132 52.6064 215.712 52.8018C215.292 52.9971 214.965 53.2607 214.73 53.5928C214.496 53.9248 214.379 54.3008 214.379 54.7207H210.863C210.863 54.0957 211.015 53.4902 211.317 52.9043C211.62 52.3184 212.06 51.7959 212.636 51.3369C213.212 50.8779 213.9 50.5166 214.701 50.2529C215.502 49.9893 216.4 49.8574 217.396 49.8574C218.588 49.8574 219.643 50.0576 220.561 50.458C221.488 50.8584 222.216 51.4639 222.743 52.2744C223.28 53.0752 223.549 54.0811 223.549 55.292V62.3379C223.549 63.0605 223.598 63.71 223.695 64.2861C223.803 64.8525 223.954 65.3457 224.149 65.7656V66H220.531C220.365 65.6191 220.233 65.1357 220.136 64.5498C220.048 63.9541 220.004 63.3779 220.004 62.8213ZM220.517 56.3613L220.546 58.5439H218.012C217.357 58.5439 216.781 58.6074 216.283 58.7344C215.785 58.8516 215.37 59.0273 215.038 59.2617C214.706 59.4961 214.457 59.7793 214.291 60.1113C214.125 60.4434 214.042 60.8193 214.042 61.2393C214.042 61.6592 214.14 62.0449 214.335 62.3965C214.53 62.7383 214.813 63.0068 215.185 63.2021C215.565 63.3975 216.024 63.4951 216.562 63.4951C217.284 63.4951 217.914 63.3486 218.451 63.0557C218.998 62.7529 219.428 62.3867 219.74 61.957C220.053 61.5176 220.219 61.1025 220.238 60.7119L221.381 62.2793C221.264 62.6797 221.063 63.1094 220.78 63.5684C220.497 64.0273 220.126 64.4668 219.667 64.8867C219.218 65.2969 218.676 65.6338 218.041 65.8975C217.416 66.1611 216.693 66.293 215.873 66.293C214.838 66.293 213.915 66.0879 213.104 65.6777C212.294 65.2578 211.659 64.6963 211.2 63.9932C210.741 63.2803 210.512 62.4746 210.512 61.5762C210.512 60.7363 210.668 59.9941 210.98 59.3496C211.303 58.6953 211.771 58.1484 212.387 57.709C213.012 57.2695 213.773 56.9375 214.672 56.7129C215.57 56.4785 216.596 56.3613 217.748 56.3613H220.517Z" fill="black"/>
<path d="M74.9117 66.4819C74.9117 68.6626 74.0347 70.7539 72.4738 72.2959C70.9128 73.8378 68.7957 74.7041 66.5881 74.7041H8.32352C6.11598 74.7041 3.99886 73.8378 2.4379 72.2959C0.87694 70.7539 0 68.6626 0 66.4819V8.92632C0 6.74566 0.87694 4.6543 2.4379 3.11233C3.99886 1.57037 6.11598 0.704102 8.32352 0.704102L66.5881 0.704102C68.7957 0.704102 70.9128 1.57037 72.4738 3.11233C74.0347 4.6543 74.9117 6.74566 74.9117 8.92632V66.4819Z" fill="#3B88C3"/>
<path d="M64.5362 38.9599C60.8988 35.7819 54.7134 33.1329 50.6214 31.3795C49.9281 31.0837 49.3023 30.8172 48.7711 30.5798C47.227 29.8925 45.1157 27.9891 46.0251 25.8024C46.6373 24.3239 48.1904 23.5783 50.6484 23.5783C51.4362 23.5783 52.3005 23.6616 53.2234 23.8199C56.4286 24.3738 58.8595 25.4817 60.2371 26.1107C60.4081 26.1898 60.6062 26.1981 60.7863 26.1398C60.9618 26.0773 61.1104 25.9524 61.1869 25.79L64.3426 19.205C64.4822 18.9176 64.3741 18.5761 64.086 18.4011C61.8622 17.035 56.3115 15.0066 50.1442 15.0066C49.2528 15.0066 48.366 15.0483 47.5017 15.1316C42.5858 15.5981 37.6609 16.8101 34.9328 22.4787C33.2312 26.0065 33.2357 29.98 34.9373 32.8456C36.756 35.9735 39.7362 37.373 43.5086 39.139L43.9948 39.368C46.7184 40.6259 49.9821 42.0253 52.1294 42.9458C55.3032 44.3619 56.4781 46.8776 55.7488 48.3937C54.5739 50.8386 51.9764 51.3759 47.4836 50.1972C43.5176 49.2017 39.8577 46.3903 38.8358 45.5531C38.6828 45.4282 38.4802 45.3699 38.2731 45.3949C38.0705 45.4199 37.8905 45.5282 37.7779 45.6823L32.889 52.6171C32.7045 52.8795 32.745 53.2252 32.9881 53.4418C35.5226 55.7034 37.5888 57.0195 41.1677 58.6481C43.5761 59.7435 47.101 60.4016 50.5988 60.4016C54.2542 60.4016 63.1812 59.6185 67.0977 52.3797C69.5961 47.7481 68.6643 42.8667 64.5362 38.9599Z" fill="#1C4B77"/>
<path d="M12.9941 19.8455C12.9941 16.9122 15.0584 14.9368 17.9612 14.9368H28.6715C43.1253 14.9368 51.3843 24.1149 51.3843 38.2633C51.3843 51.647 42.6092 60.3153 29.3166 60.3153H18.0902C15.9615 60.3153 12.9941 59.1662 12.9941 55.5361V19.8455ZM22.6723 51.5196H29.1896C37.5131 51.5196 41.3191 45.4659 41.3191 37.8172C41.3191 29.6587 37.4507 23.7326 28.5446 23.7326H22.6723V51.5196Z" fill="white"/>
</svg>
